<svg width="50" height="39" viewBox="0 0 50 39" fill="none" xmlns="http://www.w3.org/2000/svg">
<path d="M2 36.9999V34.9411C2 26.9816 8.45237 20.5293 16.4118 20.5293C24.3712 20.5293 30.8235 26.9816 30.8235 34.9411V36.9999" stroke="#5B6065" stroke-width="4" stroke-linecap="round"/>
<path d="M26.7059 24.6471C26.7059 18.9619 31.3148 14.353 37 14.353C42.6853 14.353 47.2942 18.9619 47.2942 24.6471V25.6766" stroke="#5B6065" stroke-width="4" stroke-linecap="round"/>
<path d="M16.4118 20.5294C20.96 20.5294 24.6471 16.8423 24.6471 12.2941C24.6471 7.7459 20.96 4.05884 16.4118 4.05884C11.8636 4.05884 8.17651 7.7459 8.17651 12.2941C8.17651 16.8423 11.8636 20.5294 16.4118 20.5294Z" stroke="#5B6065" stroke-width="4" stroke-linecap="round" stroke-linejoin="round"/>
<path d="M37 14.3529C40.4112 14.3529 43.1764 11.5876 43.1764 8.17647C43.1764 4.76531 40.4112 2 37 2C33.5887 2 30.8235 4.76531 30.8235 8.17647C30.8235 11.5876 33.5887 14.3529 37 14.3529Z" stroke="#5B6065" stroke-width="4" stroke-linecap="round" stroke-linejoin="round"/>
</svg>
