<?xml version="1.0" encoding="utf-8"?>
<svg viewBox="84.708 135.628 65.356 43.782" xmlns="http://www.w3.org/2000/svg">
  <rect x="84.708" y="135.628" width="65.356" height="43.782" style="paint-order: stroke; fill: rgb(200, 145, 213);" rx="4.125" ry="4.125" transform="matrix(0.9999999999999999, 0, 0, 0.9999999999999999, -7.105427357601002e-15, -1.4210854715202004e-14)"/>
  <path d="M 12.944 8.868 C 13.001 8.742 13.028 8.679 13.068 8.66 C 13.102 8.643 13.141 8.643 13.175 8.66 C 13.214 8.679 13.242 8.742 13.299 8.868 L 13.745 9.87 C 13.762 9.907 13.77 9.926 13.783 9.94 C 13.794 9.953 13.808 9.963 13.823 9.97 C 13.841 9.977 13.861 9.979 13.902 9.984 L 14.993 10.099 C 15.13 10.113 15.198 10.121 15.229 10.152 C 15.255 10.179 15.268 10.217 15.262 10.254 C 15.256 10.297 15.205 10.344 15.102 10.436 L 14.287 11.17 C 14.257 11.197 14.242 11.211 14.232 11.228 C 14.224 11.242 14.219 11.259 14.217 11.275 C 14.215 11.295 14.219 11.314 14.228 11.354 L 14.455 12.427 C 14.484 12.562 14.498 12.63 14.478 12.668 C 14.46 12.702 14.428 12.725 14.391 12.732 C 14.348 12.739 14.288 12.705 14.169 12.636 L 13.218 12.087 C 13.183 12.067 13.165 12.057 13.147 12.053 C 13.13 12.05 13.113 12.05 13.096 12.053 C 13.078 12.057 13.06 12.067 13.025 12.087 L 12.074 12.636 C 11.955 12.705 11.895 12.739 11.852 12.732 C 11.815 12.725 11.783 12.702 11.765 12.668 C 11.745 12.63 11.759 12.562 11.788 12.427 L 12.015 11.354 C 12.024 11.314 12.028 11.295 12.026 11.275 C 12.024 11.259 12.019 11.242 12.011 11.228 C 12.001 11.211 11.986 11.197 11.956 11.17 L 11.141 10.436 C 11.038 10.344 10.987 10.297 10.981 10.254 C 10.975 10.217 10.988 10.179 11.014 10.152 C 11.045 10.121 11.113 10.113 11.25 10.099 L 12.341 9.984 C 12.382 9.979 12.402 9.977 12.419 9.97 C 12.435 9.963 12.449 9.953 12.46 9.94 C 12.473 9.926 12.481 9.907 12.498 9.87 L 12.944 8.868 Z" stroke-linecap="round" stroke-linejoin="round" style="fill: none; stroke: rgb(255, 255, 255); stroke-width: 0.299406px; transform-origin: 13.1215px 10.6901px;" transform="matrix(3.339941978455, 0, 0, 3.339941978455, 115.88469468965, 153.691357294486)"/>
  <path d="M 9.629 4.3 C 9.686 4.174 9.713 4.111 9.753 4.092 C 9.787 4.075 9.826 4.075 9.86 4.092 C 9.899 4.111 9.927 4.174 9.984 4.3 L 10.43 5.302 C 10.447 5.339 10.455 5.358 10.468 5.372 C 10.479 5.385 10.493 5.395 10.508 5.402 C 10.526 5.409 10.546 5.411 10.587 5.416 L 11.678 5.531 C 11.815 5.545 11.883 5.553 11.914 5.584 C 11.94 5.611 11.953 5.649 11.947 5.686 C 11.941 5.729 11.89 5.776 11.787 5.868 L 10.972 6.602 C 10.942 6.629 10.927 6.643 10.917 6.66 C 10.909 6.674 10.904 6.691 10.902 6.707 C 10.9 6.727 10.904 6.746 10.913 6.786 L 11.14 7.859 C 11.169 7.994 11.183 8.062 11.163 8.1 C 11.145 8.134 11.113 8.157 11.076 8.164 C 11.033 8.171 10.973 8.137 10.854 8.068 L 9.903 7.519 C 9.868 7.499 9.85 7.489 9.832 7.485 C 9.815 7.482 9.798 7.482 9.781 7.485 C 9.763 7.489 9.745 7.499 9.71 7.519 L 8.759 8.068 C 8.64 8.137 8.58 8.171 8.537 8.164 C 8.5 8.157 8.468 8.134 8.45 8.1 C 8.43 8.062 8.444 7.994 8.473 7.859 L 8.7 6.786 C 8.709 6.746 8.713 6.727 8.711 6.707 C 8.709 6.691 8.704 6.674 8.696 6.66 C 8.686 6.643 8.671 6.629 8.641 6.602 L 7.826 5.868 C 7.723 5.776 7.672 5.729 7.666 5.686 C 7.66 5.649 7.673 5.611 7.699 5.584 C 7.73 5.553 7.798 5.545 7.935 5.531 L 9.026 5.416 C 9.067 5.411 9.087 5.409 9.104 5.402 C 9.12 5.395 9.134 5.385 9.145 5.372 C 9.158 5.358 9.166 5.339 9.183 5.302 L 9.629 4.3 Z" stroke-linecap="round" stroke-linejoin="round" style="fill: none; stroke: rgb(255, 255, 255); stroke-width: 0.299406px; transform-origin: 9.807px 6.122px;" transform="matrix(3.339941978455, 0, 0, 3.339941978455, 108.128957341257, 143.002327535713)"/>
  <path d="M 6.523 8.929 C 6.58 8.803 6.607 8.74 6.647 8.721 C 6.681 8.704 6.72 8.704 6.754 8.721 C 6.793 8.74 6.821 8.803 6.878 8.929 L 7.324 9.931 C 7.341 9.968 7.349 9.987 7.362 10.001 C 7.373 10.014 7.387 10.024 7.402 10.031 C 7.42 10.038 7.44 10.04 7.481 10.045 L 8.572 10.16 C 8.709 10.174 8.777 10.182 8.808 10.213 C 8.834 10.24 8.847 10.278 8.841 10.315 C 8.835 10.358 8.784 10.405 8.681 10.497 L 7.866 11.231 C 7.836 11.258 7.821 11.272 7.811 11.289 C 7.803 11.303 7.798 11.32 7.796 11.336 C 7.794 11.356 7.798 11.375 7.807 11.415 L 8.034 12.488 C 8.063 12.623 8.077 12.691 8.057 12.729 C 8.039 12.763 8.007 12.786 7.97 12.793 C 7.927 12.8 7.867 12.766 7.748 12.697 L 6.797 12.148 C 6.762 12.128 6.744 12.118 6.726 12.114 C 6.709 12.111 6.692 12.111 6.675 12.114 C 6.657 12.118 6.639 12.128 6.604 12.148 L 5.653 12.697 C 5.534 12.766 5.474 12.8 5.431 12.793 C 5.394 12.786 5.362 12.763 5.344 12.729 C 5.324 12.691 5.338 12.623 5.367 12.488 L 5.594 11.415 C 5.603 11.375 5.607 11.356 5.605 11.336 C 5.603 11.32 5.598 11.303 5.59 11.289 C 5.58 11.272 5.565 11.258 5.535 11.231 L 4.72 10.497 C 4.617 10.405 4.566 10.358 4.56 10.315 C 4.554 10.278 4.567 10.24 4.593 10.213 C 4.624 10.182 4.692 10.174 4.829 10.16 L 5.92 10.045 C 5.961 10.04 5.981 10.038 5.998 10.031 C 6.014 10.024 6.028 10.014 6.039 10.001 C 6.052 9.987 6.06 9.968 6.077 9.931 L 6.523 8.929 Z" stroke-linecap="round" stroke-linejoin="round" style="fill: none; stroke: rgb(255, 255, 255); stroke-width: 0.299406px; transform-origin: 6.701px 10.751px;" transform="matrix(3.339941978455, 0, 0, 3.339941978455, 100.861097681143, 153.833919391362)"/>
</svg>