<?xml version="1.0" encoding="utf-8"?>
<svg viewBox="98.6462 141.1293 35.7545 29.1059" xmlns="http://www.w3.org/2000/svg">
  <path d="M 126.654 157.123 C 126.844 156.702 126.934 156.492 127.068 156.428 C 127.181 156.371 127.312 156.371 127.425 156.428 C 127.555 156.492 127.649 156.702 127.839 157.123 L 129.329 160.469 C 129.386 160.593 129.412 160.656 129.456 160.703 C 129.493 160.747 129.539 160.78 129.589 160.803 C 129.649 160.827 129.716 160.833 129.853 160.85 L 133.497 161.234 C 133.955 161.281 134.182 161.308 134.285 161.411 C 134.372 161.501 134.416 161.628 134.396 161.752 C 134.376 161.896 134.205 162.053 133.861 162.36 L 131.139 164.811 C 131.039 164.902 130.989 164.948 130.955 165.005 C 130.929 165.052 130.912 165.109 130.905 165.162 C 130.899 165.229 130.912 165.292 130.942 165.426 L 131.7 169.01 C 131.797 169.461 131.844 169.688 131.777 169.815 C 131.717 169.928 131.61 170.005 131.486 170.028 C 131.343 170.052 131.142 169.938 130.745 169.708 L 127.569 167.874 C 127.452 167.807 127.392 167.774 127.332 167.761 C 127.275 167.751 127.218 167.751 127.161 167.761 C 127.101 167.774 127.041 167.807 126.924 167.874 L 123.748 169.708 C 123.35 169.938 123.15 170.052 123.006 170.028 C 122.883 170.005 122.776 169.928 122.716 169.815 C 122.649 169.688 122.696 169.461 122.793 169.01 L 123.551 165.426 C 123.581 165.292 123.594 165.229 123.588 165.162 C 123.581 165.109 123.564 165.052 123.537 165.005 C 123.504 164.948 123.454 164.902 123.354 164.811 L 120.632 162.36 C 120.288 162.053 120.117 161.896 120.097 161.752 C 120.077 161.628 120.121 161.501 120.207 161.411 C 120.311 161.308 120.538 161.281 120.996 161.234 L 124.64 160.85 C 124.777 160.833 124.843 160.827 124.9 160.803 C 124.954 160.78 125 160.747 125.037 160.703 C 125.08 160.656 125.107 160.593 125.164 160.469 L 126.654 157.123 Z" stroke-linecap="round" stroke-linejoin="round" style="fill: rgb(255, 255, 255); transform-origin: 114.337px 153.602px;"/>
  <path d="M 115.581 141.867 C 115.772 141.446 115.862 141.235 115.996 141.172 C 116.109 141.115 116.239 141.115 116.353 141.172 C 116.483 141.235 116.577 141.446 116.767 141.867 L 118.257 145.213 C 118.314 145.337 118.34 145.4 118.384 145.447 C 118.42 145.49 118.467 145.524 118.517 145.547 C 118.577 145.571 118.644 145.577 118.781 145.594 L 122.425 145.978 C 122.883 146.025 123.11 146.052 123.213 146.155 C 123.3 146.245 123.344 146.372 123.323 146.496 C 123.303 146.639 123.133 146.796 122.789 147.104 L 120.067 149.555 C 119.967 149.645 119.917 149.692 119.883 149.749 C 119.857 149.796 119.84 149.852 119.833 149.906 C 119.827 149.973 119.84 150.036 119.87 150.17 L 120.628 153.753 C 120.725 154.204 120.772 154.431 120.705 154.558 C 120.645 154.672 120.538 154.749 120.414 154.772 C 120.271 154.796 120.07 154.682 119.673 154.451 L 116.497 152.618 C 116.38 152.551 116.32 152.518 116.259 152.504 C 116.203 152.494 116.146 152.494 116.089 152.504 C 116.029 152.518 115.969 152.551 115.852 152.618 L 112.676 154.451 C 112.278 154.682 112.078 154.796 111.934 154.772 C 111.811 154.749 111.704 154.672 111.644 154.558 C 111.577 154.431 111.624 154.204 111.721 153.753 L 112.479 150.17 C 112.509 150.036 112.522 149.973 112.515 149.906 C 112.509 149.852 112.492 149.796 112.465 149.749 C 112.432 149.692 112.382 149.645 112.282 149.555 L 109.56 147.104 C 109.216 146.796 109.045 146.639 109.025 146.496 C 109.005 146.372 109.049 146.245 109.135 146.155 C 109.239 146.052 109.466 146.025 109.924 145.978 L 113.567 145.594 C 113.704 145.577 113.771 145.571 113.828 145.547 C 113.881 145.524 113.928 145.49 113.965 145.447 C 114.008 145.4 114.035 145.337 114.092 145.213 L 115.581 141.867 Z" stroke-linecap="round" stroke-linejoin="round" style="fill: rgb(255, 255, 255); transform-origin: 114.337px 153.603px;"/>
  <path d="M 105.208 157.327 C 105.398 156.906 105.488 156.695 105.622 156.632 C 105.736 156.575 105.866 156.575 105.979 156.632 C 106.11 156.695 106.203 156.906 106.393 157.327 L 107.883 160.673 C 107.94 160.797 107.967 160.86 108.01 160.907 C 108.047 160.95 108.094 160.984 108.144 161.007 C 108.204 161.031 108.271 161.037 108.407 161.054 L 112.051 161.438 C 112.509 161.485 112.736 161.512 112.84 161.615 C 112.926 161.705 112.97 161.832 112.95 161.956 C 112.93 162.099 112.759 162.256 112.415 162.564 L 109.693 165.015 C 109.593 165.105 109.543 165.152 109.51 165.209 C 109.483 165.256 109.466 165.312 109.46 165.366 C 109.453 165.433 109.466 165.496 109.496 165.63 L 110.254 169.213 C 110.351 169.664 110.398 169.891 110.331 170.018 C 110.271 170.132 110.164 170.209 110.041 170.232 C 109.897 170.256 109.697 170.142 109.299 169.912 L 106.123 168.078 C 106.006 168.011 105.946 167.978 105.886 167.964 C 105.829 167.954 105.772 167.954 105.715 167.964 C 105.655 167.978 105.595 168.011 105.478 168.078 L 102.302 169.912 C 101.905 170.142 101.704 170.256 101.561 170.232 C 101.437 170.209 101.33 170.132 101.27 170.018 C 101.203 169.891 101.25 169.664 101.347 169.213 L 102.105 165.63 C 102.135 165.496 102.148 165.433 102.142 165.366 C 102.135 165.312 102.118 165.256 102.092 165.209 C 102.058 165.152 102.008 165.105 101.908 165.015 L 99.186 162.564 C 98.842 162.256 98.672 162.099 98.651 161.956 C 98.631 161.832 98.675 161.705 98.762 161.615 C 98.865 161.512 99.092 161.485 99.55 161.438 L 103.194 161.054 C 103.331 161.037 103.398 161.031 103.454 161.007 C 103.508 160.984 103.555 160.95 103.591 160.907 C 103.635 160.86 103.661 160.797 103.718 160.673 L 105.208 157.327 Z" stroke-linecap="round" stroke-linejoin="round" style="fill: rgb(255, 255, 255); transform-origin: 114.337px 153.602px;"/>
</svg>